<svg version="1.1" id="Layer_1" xmlns="http://www.w3.org/2000/svg" xmlns:xlink="http://www.w3.org/1999/xlink" x="0px" y="0px"
	 width="100%" viewBox="0 0 434 128" enable-background="new 0 0 434 128" xml:space="preserve">
<path fill="#FEFEFE" opacity="1.000000" stroke="none" 
	d="
M282.000000,129.000000 
	C188.000015,129.000000 94.500023,129.000000 1.000025,129.000000 
	C1.000017,86.333351 1.000017,43.666698 1.000008,1.000036 
	C145.666641,1.000024 290.333282,1.000024 434.999939,1.000012 
	C434.999939,43.666626 434.999939,86.333252 434.999969,128.999939 
	C384.166656,129.000000 333.333344,129.000000 282.000000,129.000000 
M196.470093,49.618317 
	C195.759079,48.372082 195.048080,47.125843 194.112732,45.278873 
	C194.066895,44.855141 194.021057,44.431408 194.517044,43.575695 
	C193.106506,40.335602 191.695953,37.095505 190.070435,33.911316 
	C190.070435,33.911316 189.899796,34.053539 190.067032,33.381355 
	C190.052246,32.919868 190.037476,32.458378 190.572906,31.431076 
	C190.867950,29.711750 191.163010,27.992424 191.295975,27.217554 
	C196.047195,25.793009 200.097092,24.578735 204.847778,23.201351 
	C205.560211,23.100536 206.272644,22.999722 207.316895,23.398750 
	C208.216873,22.266600 209.116852,21.134449 209.998596,19.324587 
	C209.684799,18.513855 209.370987,17.703123 208.906418,16.202330 
	C207.230789,16.374683 205.555161,16.547037 203.172531,16.884466 
	C202.449051,16.928322 201.725586,16.972178 200.421463,16.433863 
	C195.441574,16.344343 190.192596,14.451168 185.086716,18.760994 
	C184.056335,18.829485 183.025940,18.897974 181.506561,18.443996 
	C179.290131,19.179203 177.073715,19.914410 174.156052,20.817760 
	C173.439194,20.891985 172.722351,20.966209 171.605209,20.524174 
	C170.023514,21.236900 168.441818,21.949629 166.249451,22.826056 
	C165.830582,22.866928 165.411713,22.907801 164.573227,22.459969 
	C163.365067,23.276834 162.156906,24.093702 160.503220,25.414360 
	C160.643600,26.655943 160.783966,27.897528 161.021622,29.813782 
	C163.350449,33.325672 165.291031,31.913582 167.750320,29.169350 
	C168.169098,29.128853 168.587875,29.088356 169.452530,29.545107 
	C171.025497,28.840399 172.598480,28.135691 174.864456,27.241344 
	C175.579117,27.178930 176.293762,27.116516 177.520432,27.577866 
	C178.712296,28.736135 179.940338,29.860022 181.084686,31.063461 
	C182.013916,32.040680 182.842728,33.113369 183.933228,34.094624 
	C183.933228,34.094624 184.100952,33.948193 183.933533,34.618748 
	C183.958618,35.078728 183.983688,35.538708 183.507904,36.394527 
	C184.267517,37.635273 185.027130,38.876019 186.000076,40.064732 
	C186.000076,40.064732 186.165787,39.920689 185.990143,40.596073 
	C186.019882,41.060257 186.049637,41.524441 185.556030,42.366482 
	C186.305710,43.613731 187.055405,44.860977 188.017670,46.057087 
	C188.017670,46.057087 188.183487,45.914604 187.998001,46.590862 
	C188.017563,47.057873 188.037125,47.524887 187.543289,48.371361 
	C188.254608,49.619572 188.965927,50.867786 189.936447,52.550404 
	C190.035675,52.686737 190.134888,52.823074 190.024658,53.618458 
	C190.030716,54.079269 190.036789,54.540085 189.524704,55.399960 
	C190.261368,56.965748 190.998032,58.531536 191.976898,60.540531 
	C192.073227,60.678612 192.169540,60.816689 192.051804,61.614586 
	C192.055130,62.076855 192.058456,62.539124 191.537781,63.393242 
	C192.261520,64.963669 192.985260,66.534096 193.947983,68.545219 
	C194.041519,68.683685 194.135071,68.822144 194.013580,69.617455 
	C194.009811,70.078171 194.006042,70.538895 193.486511,71.436249 
	C194.212402,72.997124 194.938293,74.558006 195.919800,76.553017 
	C196.017670,76.689484 196.115540,76.825958 196.009796,77.619461 
	C196.020050,78.077866 196.030319,78.536263 195.576111,79.313675 
	C196.032959,79.887215 196.489807,80.460754 197.378082,81.135796 
	C197.378082,81.135796 197.818146,81.083115 197.872620,81.699493 
	C198.223083,82.197990 198.573547,82.696487 199.065720,83.858246 
	C200.906662,83.352394 202.747604,82.846550 204.588547,82.340698 
	C203.834915,80.521591 203.081268,78.702492 202.069443,76.449463 
	C201.971268,76.312744 201.873093,76.176025 201.978714,75.379562 
	C201.972458,74.919388 201.966187,74.459213 202.479782,73.603195 
	C201.755478,72.032356 201.031158,70.461510 200.065369,68.452194 
	C199.971970,68.313934 199.878555,68.175674 199.995529,67.379547 
	C200.000809,66.919167 200.006088,66.458786 200.522766,65.559395 
	C199.800369,63.998337 199.077972,62.437279 198.135117,60.185192 
	C198.062820,59.464924 197.990524,58.744656 198.466736,57.611862 
	C197.753998,56.035660 197.041275,54.459457 196.077713,52.447895 
	C195.981140,52.311066 195.884552,52.174232 195.989929,51.377888 
	C195.980560,50.918304 195.971176,50.458725 196.470093,49.618317 
M270.000000,81.000000 
	C270.000000,81.000000 269.991699,81.009445 270.017181,81.711601 
	C272.810516,84.327309 276.288086,83.391960 276.660614,79.503044 
	C277.022705,75.723625 276.313263,71.841553 276.074524,67.290710 
	C276.157013,66.582985 276.239502,65.875259 276.962555,64.924332 
	C277.647430,63.283855 278.467926,61.685604 278.994110,59.995720 
	C281.520264,51.882236 285.960327,49.955017 293.765411,53.631378 
	C294.173187,53.823452 294.737213,53.683861 295.249207,53.752972 
	C295.249207,53.752972 295.303436,53.773827 295.177399,54.513676 
	C297.244232,60.078930 299.255341,65.666054 301.424530,71.191139 
	C301.862335,72.306351 302.898590,73.186615 303.783569,74.780289 
	C303.812927,75.190781 303.842285,75.601273 303.396759,76.545502 
	C304.622650,79.800873 305.457703,83.286224 307.195953,86.240097 
	C308.630371,88.677780 311.256470,88.444145 313.041138,86.201187 
	C316.678162,81.630135 312.436523,78.979042 310.166321,75.235344 
	C310.136139,74.821304 310.105957,74.407265 310.575195,73.435204 
	C309.896729,62.878304 306.366638,53.444637 298.267242,46.466351 
	C294.743317,43.430191 290.292938,41.080215 285.019562,42.636608 
	C278.131409,44.669609 273.816132,49.282524 271.261139,55.812141 
	C270.562622,57.597305 269.691986,59.315132 268.853546,61.167297 
	C266.919403,60.302578 265.460693,59.650410 264.000000,59.000000 
	C264.000000,59.000000 264.001709,58.997986 263.969391,58.290737 
	C260.568726,56.563126 257.172150,53.402756 253.766617,53.393105 
	C245.570633,53.369869 242.708984,60.297340 239.945633,67.725395 
	C237.816788,63.674282 236.429474,60.267113 234.325562,57.382641 
	C233.395523,56.107548 231.034790,55.812462 229.254303,55.325768 
	C229.087997,55.280308 228.421570,57.064396 227.945465,58.668373 
	C227.929718,59.115181 227.913971,59.561989 227.419022,60.469704 
	C228.014236,62.285717 228.423813,64.189972 229.237610,65.902100 
	C232.355728,72.462273 235.440994,79.050232 238.938858,85.407570 
	C239.647949,86.696373 242.069794,87.480293 243.757812,87.583313 
	C244.458694,87.626083 245.305893,85.271378 246.109619,83.290337 
	C246.167236,82.576424 246.224838,81.862518 246.947296,80.857193 
	C247.308670,76.905533 247.670059,72.953873 248.077484,68.385178 
	C248.161209,67.981743 248.244934,67.578308 248.988693,66.973709 
	C249.563507,65.560120 250.138321,64.146523 251.009354,62.350323 
	C251.224045,62.106533 251.467499,61.896023 252.553375,61.878036 
	C255.009766,62.607075 257.466156,63.336117 260.236298,64.426300 
	C260.454010,64.659859 260.683807,64.880821 260.940918,65.814758 
	C263.235657,70.538544 265.485321,75.285469 267.884033,79.955864 
	C268.173157,80.518806 269.268768,80.667519 270.000000,81.000000 
M408.342255,54.194672 
	C410.036133,45.728271 411.718750,37.259590 413.428802,28.796461 
	C414.244934,24.757298 412.607239,22.719568 408.509705,22.703220 
	C401.188843,22.674019 393.866913,22.609781 386.547272,22.703501 
	C382.165283,22.759605 381.062225,24.431736 382.227631,28.751524 
	C386.807556,45.727650 391.312683,62.724899 396.086273,79.646423 
	C396.582367,81.404953 398.676727,82.712608 400.029510,84.229454 
	C401.344543,82.677338 403.466461,81.295723 403.836609,79.543953 
	C405.550659,71.432213 406.778259,63.217690 408.342255,54.194672 
M49.006676,101.333405 
	C46.384499,90.740135 43.995018,80.081139 41.029804,69.584778 
	C39.779797,65.159973 40.902126,63.669174 45.228867,62.920135 
	C54.626968,61.293148 62.949432,57.198658 69.280457,49.948322 
	C72.705803,46.025593 74.836304,41.579445 73.052017,35.776947 
	C69.612793,24.592615 57.921726,19.154726 46.488678,20.535446 
	C41.584160,21.127743 36.760689,22.385885 31.857323,22.994452 
	C26.483820,23.661371 24.548100,25.863626 25.755938,31.222090 
	C31.178230,55.277603 36.631599,79.326904 42.321949,103.319580 
	C42.737484,105.071625 45.163067,107.634026 46.589191,107.592438 
	C49.594788,107.504799 50.432819,104.935112 49.006676,101.333405 
M361.781006,85.231255 
	C362.654907,84.754478 363.549866,84.312195 364.398682,83.794289 
	C366.693878,82.393936 369.717010,80.826469 367.735229,77.723206 
	C365.834961,74.747536 363.200531,76.831406 360.751068,77.972488 
	C356.856476,79.786774 352.882660,81.701035 348.731323,82.641792 
	C337.742340,85.132080 330.957825,79.611839 330.346741,68.382790 
	C330.181244,65.341347 331.147858,64.037292 334.076813,62.496479 
	C341.044586,58.830975 347.926361,54.698830 353.988556,49.715878 
	C358.420349,46.073067 356.952454,41.096325 351.811157,38.461739 
	C345.438538,35.196167 337.317871,36.214268 332.444244,41.428860 
	C322.247772,52.338680 320.430664,67.264198 326.733490,80.476570 
	C328.959167,85.142059 332.902527,88.086945 338.081299,89.500740 
	C346.447540,91.784691 353.748718,88.700806 361.781006,85.231255 
M135.677597,49.897919 
	C133.677612,43.605900 131.811249,37.266644 129.611832,31.045122 
	C128.732986,28.559076 129.096344,24.020401 124.535484,25.312006 
	C120.464844,26.464787 122.223595,30.110884 122.606987,32.936928 
	C122.672684,33.421150 122.926758,33.877972 123.076576,34.352890 
	C126.956970,46.653782 130.766037,58.977741 134.737869,71.249023 
	C137.387360,79.434822 140.095367,87.612770 143.204483,95.628494 
	C143.764984,97.073555 146.401367,97.713425 148.079346,98.725044 
	C148.557968,96.692909 149.906189,94.394226 149.377899,92.670723 
	C145.068680,78.612137 140.408936,64.660980 135.677597,49.897919 
M115.977425,93.647339 
	C117.591599,93.832932 119.205772,94.018524 120.819946,94.204109 
	C120.900589,92.520653 121.478760,90.672997 120.985664,89.178894 
	C115.480995,72.499672 109.754105,55.893776 104.253975,39.213097 
	C103.526764,37.007633 103.803268,34.074944 100.470581,34.641331 
	C97.280243,35.183525 96.950874,37.748001 97.753860,40.479912 
	C99.847740,47.603714 101.719765,54.805096 104.133270,61.819679 
	C107.734444,72.286064 111.724281,82.618729 115.977425,93.647339 
M212.967911,55.370945 
	C209.163055,57.364948 209.150055,60.393890 210.620071,63.859699 
	C213.083298,69.667206 215.569656,75.465714 217.948639,81.307777 
	C219.006500,83.905624 220.056427,86.706680 223.542633,85.243027 
	C226.875137,83.843910 225.924377,81.259415 224.843185,78.532913 
	C222.166336,71.782600 219.902222,64.867996 217.193726,58.131397 
	C216.695496,56.892212 214.886703,56.179947 212.967911,55.370945 
M82.584160,74.923363 
	C79.121361,73.289391 77.304413,75.237328 78.095665,78.149353 
	C80.191620,85.863152 82.807793,93.456673 85.705757,100.907936 
	C86.123230,101.981323 89.237465,102.005875 91.103706,102.515808 
	C91.289368,100.449326 92.071922,98.204773 91.520981,96.358040 
	C90.691818,93.578751 88.680405,91.174194 87.621674,88.436279 
	C85.962051,84.144432 84.677963,79.707367 82.584160,74.923363 
M405.861969,104.431679 
	C407.922302,99.436958 406.991089,96.395966 402.884399,93.936989 
	C398.921539,91.564117 396.054108,92.938438 393.456604,96.201363 
	C390.372162,100.075935 392.333008,103.216766 395.151154,105.725632 
	C398.557831,108.758430 402.173645,107.775940 405.861969,104.431679 
M211.363403,46.897522 
	C213.433167,45.878803 215.592484,44.987106 217.454636,43.673973 
	C217.677032,43.517151 216.514389,40.117401 215.584290,39.889122 
	C213.980484,39.495495 211.127579,39.861031 210.497818,40.919170 
	C209.701172,42.257717 210.604126,44.607784 211.363403,46.897522 
M83.885368,67.557983 
	C82.536690,64.035446 79.953972,64.136482 77.759262,66.168610 
	C76.808144,67.049271 77.258934,69.444023 77.072945,71.151047 
	C79.195335,70.675224 81.329132,70.241234 83.425545,69.670059 
	C83.684395,69.599541 83.744080,68.798012 83.885368,67.557983 
z"/>
<path fill="#CC6B34" opacity="1.000000" stroke="none" 
	d="
M408.261169,54.617325 
	C406.778259,63.217690 405.550659,71.432213 403.836609,79.543953 
	C403.466461,81.295723 401.344543,82.677338 400.029510,84.229462 
	C398.676727,82.712608 396.582367,81.404953 396.086273,79.646423 
	C391.312683,62.724899 386.807556,45.727650 382.227631,28.751524 
	C381.062225,24.431736 382.165283,22.759605 386.547272,22.703501 
	C393.866913,22.609781 401.188843,22.674019 408.509705,22.703220 
	C412.607239,22.719568 414.244934,24.757298 413.428802,28.796461 
	C411.718750,37.259590 410.036133,45.728271 408.261169,54.617325 
z"/>
<path fill="#D59CAA" opacity="1.000000" stroke="none" 
	d="
M49.173729,101.692429 
	C50.432819,104.935112 49.594788,107.504799 46.589191,107.592438 
	C45.163067,107.634026 42.737484,105.071625 42.321949,103.319580 
	C36.631599,79.326904 31.178230,55.277603 25.755938,31.222090 
	C24.548100,25.863626 26.483820,23.661371 31.857323,22.994452 
	C36.760689,22.385885 41.584160,21.127743 46.488678,20.535446 
	C57.921726,19.154726 69.612793,24.592615 73.052017,35.776947 
	C74.836304,41.579445 72.705803,46.025593 69.280457,49.948322 
	C62.949432,57.198658 54.626968,61.293148 45.228867,62.920135 
	C40.902126,63.669174 39.779797,65.159973 41.029804,69.584778 
	C43.995018,80.081139 46.384499,90.740135 49.173729,101.692429 
M39.014950,56.824203 
	C46.926826,57.342602 53.466385,53.670589 59.720680,49.620838 
	C63.484344,47.183811 67.289230,43.961861 66.665077,38.873802 
	C65.974396,33.243401 61.984016,30.128521 56.734253,28.189133 
	C49.152695,25.388327 41.977085,27.830515 34.754055,29.471632 
	C33.939175,29.656778 32.896561,31.987804 33.119781,33.088448 
	C34.697598,40.868271 36.578648,48.586597 39.014950,56.824203 
z"/>
<path fill="#D07845" opacity="1.000000" stroke="none" 
	d="
M361.439392,85.378815 
	C353.748718,88.700806 346.447540,91.784691 338.081299,89.500740 
	C332.902527,88.086945 328.959167,85.142059 326.733490,80.476570 
	C320.430664,67.264198 322.247772,52.338680 332.444244,41.428860 
	C337.317871,36.214268 345.438538,35.196167 351.811157,38.461739 
	C356.952454,41.096325 358.420349,46.073067 353.988556,49.715878 
	C347.926361,54.698830 341.044586,58.830975 334.076813,62.496479 
	C331.147858,64.037292 330.181244,65.341347 330.346741,68.382790 
	C330.957825,79.611839 337.742340,85.132080 348.731323,82.641792 
	C352.882660,81.701035 356.856476,79.786774 360.751068,77.972488 
	C363.200531,76.831406 365.834961,74.747536 367.735229,77.723206 
	C369.717010,80.826469 366.693878,82.393936 364.398682,83.794289 
	C363.549866,84.312195 362.654907,84.754478 361.439392,85.378815 
M338.873932,53.452065 
	C341.764923,51.545643 344.828186,49.849918 347.495270,47.669586 
	C349.848450,45.745869 349.339478,43.950718 346.263153,43.217342 
	C339.499237,41.604893 332.167664,48.243671 332.713806,56.029926 
	C334.635803,55.258194 336.428833,54.538235 338.873932,53.452065 
z"/>
<path fill="#CE713C" opacity="1.000000" stroke="none" 
	d="
M227.898209,60.008797 
	C227.913971,59.561989 227.929718,59.115181 228.295883,58.194733 
	C231.887894,55.946594 233.069443,58.156071 234.259079,60.546642 
	C236.168472,64.383606 238.166031,68.176682 240.126328,71.988312 
	C240.571411,71.832550 241.016510,71.676781 241.461609,71.521019 
	C241.684769,70.457161 241.910339,69.393806 242.130737,68.329384 
	C244.757309,55.644588 252.016968,52.352585 263.035553,58.836090 
	C263.298370,58.990734 263.677063,58.948429 264.001709,58.997986 
	C264.001709,58.997986 264.000000,59.000000 264.024750,59.343994 
	C265.650696,61.701794 267.251862,63.715607 269.461914,66.495148 
	C270.541565,63.254356 271.398834,60.982883 272.056244,58.654980 
	C274.808899,48.908245 280.957031,44.068871 289.959259,44.897011 
	C296.877350,45.533432 301.051910,50.207432 303.678955,55.908535 
	C306.343719,61.691395 307.985779,67.945511 310.075775,73.993225 
	C310.105957,74.407265 310.136139,74.821304 310.117554,75.929642 
	C310.455109,77.861366 311.090973,79.084290 311.163971,80.339920 
	C311.253174,81.874443 310.870209,83.436424 310.691437,84.986526 
	C309.303375,84.090096 307.498505,83.483406 306.626160,82.228477 
	C305.355865,80.401039 304.756866,78.106911 303.871643,76.011765 
	C303.842285,75.601273 303.812927,75.190781 303.844086,74.076431 
	C302.431335,66.227982 301.410004,58.885033 295.303436,53.773827 
	C295.303436,53.773827 295.249207,53.752972 295.152100,53.397736 
	C290.117371,48.471542 285.687103,47.576344 282.111328,52.001343 
	C279.203522,55.599751 278.180725,60.721390 276.322021,65.167542 
	C276.239502,65.875259 276.157013,66.582985 275.802399,67.952820 
	C275.404633,71.059975 275.138245,73.507797 275.186432,75.949417 
	C275.258392,79.597008 274.069946,81.728355 269.991699,81.009445 
	C269.991699,81.009445 270.000000,81.000000 269.981049,80.635925 
	C266.949951,75.210968 263.937836,70.150078 260.925720,65.089188 
	C260.683807,64.880821 260.454010,64.659859 260.004425,63.902824 
	C257.390594,61.395649 255.297775,58.013317 251.739746,61.718796 
	C251.467499,61.896023 251.224045,62.106533 250.544693,62.656136 
	C249.496246,64.366257 248.912445,65.770569 248.328644,67.174873 
	C248.244934,67.578308 248.161209,67.981743 247.772873,68.947098 
	C247.072983,73.388885 246.677719,77.268745 246.282440,81.148605 
	C246.224838,81.862518 246.167236,82.576424 245.786362,83.830986 
	C240.543823,88.951698 239.663361,83.610687 238.321548,81.111488 
	C234.612503,74.203209 231.342056,67.059456 227.898209,60.008797 
z"/>
<path fill="#D69DAC" opacity="1.000000" stroke="none" 
	d="
M135.766693,50.287537 
	C140.408936,64.660980 145.068680,78.612137 149.377899,92.670723 
	C149.906189,94.394226 148.557968,96.692909 148.079346,98.725044 
	C146.401367,97.713425 143.764984,97.073555 143.204483,95.628494 
	C140.095367,87.612770 137.387360,79.434822 134.737869,71.249023 
	C130.766037,58.977741 126.956970,46.653782 123.076576,34.352890 
	C122.926758,33.877972 122.672684,33.421150 122.606987,32.936928 
	C122.223595,30.110884 120.464844,26.464787 124.535484,25.312006 
	C129.096344,24.020401 128.732986,28.559076 129.611832,31.045122 
	C131.811249,37.266644 133.677612,43.605900 135.766693,50.287537 
z"/>
<path fill="#D69EAC" opacity="1.000000" stroke="none" 
	d="
M115.763092,93.327812 
	C111.724281,82.618729 107.734444,72.286064 104.133270,61.819679 
	C101.719765,54.805096 99.847740,47.603714 97.753860,40.479912 
	C96.950874,37.748001 97.280243,35.183525 100.470581,34.641331 
	C103.803268,34.074944 103.526764,37.007633 104.253975,39.213097 
	C109.754105,55.893776 115.480995,72.499672 120.985664,89.178894 
	C121.478760,90.672997 120.900589,92.520653 120.819946,94.204109 
	C119.205772,94.018524 117.591599,93.832932 115.763092,93.327812 
z"/>
<path fill="#D17C4C" opacity="1.000000" stroke="none" 
	d="
M169.006653,29.047855 
	C168.587875,29.088356 168.169098,29.128853 167.008972,29.153290 
	C164.486542,29.137857 162.705429,29.138485 160.924332,29.139112 
	C160.783966,27.897528 160.643600,26.655943 161.062012,25.172071 
	C162.744827,24.269411 163.868835,23.609039 164.992844,22.948669 
	C165.411713,22.907801 165.830582,22.866928 166.906250,22.843086 
	C169.043869,22.253555 170.524673,21.646994 172.005493,21.040432 
	C172.722351,20.966209 173.439194,20.891985 174.885864,20.837471 
	C177.742294,20.226944 179.868927,19.596704 181.995560,18.966465 
	C183.025940,18.897974 184.056335,18.829485 185.893494,18.806400 
	C191.467545,18.239882 196.234818,17.627956 201.002106,17.016033 
	C201.725586,16.972178 202.449051,16.928322 203.949982,16.895252 
	C206.170685,16.901489 207.613937,16.896940 209.057190,16.892391 
	C209.370987,17.703123 209.684799,18.513855 209.733582,19.798700 
	C208.640732,21.148180 207.812897,22.023544 206.985077,22.898909 
	C206.272644,22.999722 205.560211,23.100536 204.052399,23.169605 
	C198.307022,23.574705 193.357025,24.011551 187.847412,24.497780 
	C188.791061,27.750900 189.406876,29.873896 190.022705,31.996889 
	C190.037476,32.458378 190.052246,32.919868 189.620697,33.657730 
	C188.085999,32.160099 186.997635,30.386091 185.783279,28.406706 
	C185.174347,29.598835 184.560486,30.800646 183.669174,31.755291 
	C183.391739,29.531914 183.391739,27.555700 183.391739,24.809324 
	C181.026199,25.641195 179.017319,26.347649 177.008423,27.054102 
	C176.293762,27.116516 175.579117,27.178930 174.170074,27.235046 
	C171.986008,27.835115 170.496338,28.441484 169.006653,29.047855 
z"/>
<path fill="#D27D4D" opacity="1.000000" stroke="none" 
	d="
M213.325378,55.297707 
	C214.886703,56.179947 216.695496,56.892212 217.193726,58.131397 
	C219.902222,64.867996 222.166336,71.782600 224.843185,78.532913 
	C225.924377,81.259415 226.875137,83.843910 223.542633,85.243027 
	C220.056427,86.706680 219.006500,83.905624 217.948639,81.307777 
	C215.569656,75.465714 213.083298,69.667206 210.620071,63.859699 
	C209.150055,60.393890 209.163055,57.364948 213.325378,55.297707 
z"/>
<path fill="#D79FAD" opacity="1.000000" stroke="none" 
	d="
M82.909492,75.127586 
	C84.677963,79.707367 85.962051,84.144432 87.621674,88.436279 
	C88.680405,91.174194 90.691818,93.578751 91.520981,96.358040 
	C92.071922,98.204773 91.289368,100.449326 91.103706,102.515808 
	C89.237465,102.005875 86.123230,101.981323 85.705757,100.907936 
	C82.807793,93.456673 80.191620,85.863152 78.095665,78.149353 
	C77.304413,75.237328 79.121361,73.289391 82.909492,75.127586 
z"/>
<path fill="#CE7441" opacity="1.000000" stroke="none" 
	d="
M405.642334,104.711571 
	C402.173645,107.775940 398.557831,108.758430 395.151154,105.725632 
	C392.333008,103.216766 390.372162,100.075935 393.456604,96.201363 
	C396.054108,92.938438 398.921539,91.564117 402.884399,93.936989 
	C406.991089,96.395966 407.922302,99.436958 405.642334,104.711571 
z"/>
<path fill="#CA652C" opacity="1.000000" stroke="none" 
	d="
M183.946609,32.002457 
	C184.560486,30.800646 185.174347,29.598835 185.783279,28.406706 
	C186.997635,30.386091 188.085999,32.160099 189.537079,33.993820 
	C189.899796,34.053539 190.070435,33.911316 190.069641,34.225960 
	C190.075882,35.019287 190.082901,35.497963 189.843811,36.138023 
	C190.085144,36.856022 190.572556,37.412632 191.283661,38.237595 
	C191.719818,39.658295 191.932281,40.810638 191.889099,42.119335 
	C192.119324,42.834629 192.605209,43.393566 193.310638,43.990093 
	C193.530182,44.027683 193.975204,44.007675 193.975220,44.007675 
	C194.021057,44.431408 194.066895,44.855141 194.102112,45.915840 
	C194.079742,47.029995 194.067993,47.507187 193.789520,48.175697 
	C194.277847,49.590481 195.032898,50.813942 195.787964,52.037407 
	C195.884552,52.174232 195.981140,52.311066 196.075806,53.003830 
	C196.046616,54.040531 196.019333,54.521297 195.736191,55.199135 
	C195.992859,56.261211 196.505402,57.126221 197.242157,58.022961 
	C197.466354,58.054688 197.918213,58.024391 197.918213,58.024391 
	C197.990524,58.744656 198.062820,59.464924 198.112411,60.868629 
	C198.057693,62.034794 198.025696,62.517521 197.727798,63.219017 
	C198.236313,64.970993 199.010727,66.504204 199.785141,68.037415 
	C199.878555,68.175674 199.971970,68.313934 200.064728,69.042175 
	C200.080948,70.411018 200.097778,71.189873 199.838745,72.153702 
	C200.300217,73.572220 201.037567,74.805771 201.774933,76.039314 
	C201.873093,76.176025 201.971268,76.312744 202.074829,77.003265 
	C202.065201,78.034904 202.050186,78.512741 201.764648,79.196426 
	C201.299423,80.502502 201.104721,81.602730 200.579865,82.791473 
	C199.807816,82.984993 199.365906,83.089989 198.924011,83.194992 
	C198.573547,82.696487 198.223083,82.197990 198.132431,81.211174 
	C197.665970,79.469376 196.939682,78.215904 196.213409,76.962433 
	C196.115540,76.825958 196.017670,76.689484 195.920044,75.997528 
	C195.953049,74.961090 195.985825,74.480141 196.282059,73.778564 
	C195.773224,72.025497 195.000931,70.493057 194.228638,68.960609 
	C194.135071,68.822144 194.041519,68.683685 193.948318,67.953613 
	C193.935287,66.583084 193.921906,65.804146 194.180130,64.838959 
	C193.723099,63.420059 192.994492,62.187412 192.265869,60.954769 
	C192.169540,60.816689 192.073227,60.678612 191.970703,59.947380 
	C191.946930,58.577610 191.929352,57.800983 192.183441,56.837006 
	C191.714783,55.419571 190.974457,54.189491 190.234116,52.959408 
	C190.134888,52.823074 190.035675,52.686737 189.930099,51.994839 
	C189.943375,50.959915 189.963013,50.480560 190.243759,49.805878 
	C189.731079,48.378571 188.957275,47.146587 188.183487,45.914604 
	C188.183487,45.914604 188.017670,46.057087 188.018188,45.741230 
	C188.034531,44.948959 188.050354,44.472549 188.313843,43.787422 
	C187.762924,42.359367 186.964355,41.140026 186.165787,39.920689 
	C186.165787,39.920689 186.000076,40.064732 185.998505,39.748089 
	C186.003754,38.953922 186.010574,38.476398 186.274063,37.796013 
	C185.720795,36.378166 184.910873,35.163181 184.100952,33.948193 
	C184.100952,33.948193 183.933228,34.094624 183.935013,33.773602 
	C183.940079,32.969204 183.943344,32.485832 183.946609,32.002457 
z"/>
<path fill="#E9C3AE" opacity="1.000000" stroke="none" 
	d="
M310.325500,73.714218 
	C307.985779,67.945511 306.343719,61.691395 303.678955,55.908535 
	C301.051910,50.207432 296.877350,45.533432 289.959259,44.897011 
	C280.957031,44.068871 274.808899,48.908245 272.056244,58.654980 
	C271.398834,60.982883 270.541565,63.254356 269.461914,66.495148 
	C267.251862,63.715607 265.650696,61.701794 264.025757,59.343113 
	C265.460693,59.650410 266.919403,60.302578 268.853546,61.167297 
	C269.691986,59.315132 270.562622,57.597305 271.261139,55.812141 
	C273.816132,49.282524 278.131409,44.669609 285.019562,42.636608 
	C290.292938,41.080215 294.743317,43.430191 298.267242,46.466351 
	C306.366638,53.444637 309.896729,62.878304 310.325500,73.714218 
z"/>
<path fill="#E9C3AE" opacity="1.000000" stroke="none" 
	d="
M263.985535,58.644363 
	C263.677063,58.948429 263.298370,58.990734 263.035553,58.836090 
	C252.016968,52.352585 244.757309,55.644588 242.130737,68.329384 
	C241.910339,69.393806 241.684769,70.457161 241.461609,71.521019 
	C241.016510,71.676781 240.571411,71.832550 240.126328,71.988312 
	C238.166031,68.176682 236.168472,64.383606 234.259079,60.546642 
	C233.069443,58.156071 231.887894,55.946594 228.316833,57.860058 
	C228.421570,57.064396 229.087997,55.280308 229.254303,55.325768 
	C231.034790,55.812462 233.395523,56.107548 234.325562,57.382641 
	C236.429474,60.267113 237.816788,63.674282 239.945633,67.725395 
	C242.708984,60.297340 245.570633,53.369869 253.766617,53.393105 
	C257.172150,53.402756 260.568726,56.563126 263.985535,58.644363 
z"/>
<path fill="#E9C3AE" opacity="1.000000" stroke="none" 
	d="
M227.658615,60.239250 
	C231.342056,67.059456 234.612503,74.203209 238.321548,81.111488 
	C239.663361,83.610687 240.543823,88.951698 245.774841,84.189278 
	C245.305893,85.271378 244.458694,87.626083 243.757812,87.583313 
	C242.069794,87.480293 239.647949,86.696373 238.938858,85.407570 
	C235.440994,79.050232 232.355728,72.462273 229.237610,65.902100 
	C228.423813,64.189972 228.014236,62.285717 227.658615,60.239250 
z"/>
<path fill="#DFA788" opacity="1.000000" stroke="none" 
	d="
M211.068710,46.709549 
	C210.604126,44.607784 209.701172,42.257717 210.497818,40.919170 
	C211.127579,39.861031 213.980484,39.495495 215.584290,39.889122 
	C216.514389,40.117401 217.677032,43.517151 217.454636,43.673973 
	C215.592484,44.987106 213.433167,45.878803 211.068710,46.709549 
z"/>
<path fill="#E9C3AE" opacity="1.000000" stroke="none" 
	d="
M303.634216,76.278633 
	C304.756866,78.106911 305.355865,80.401039 306.626160,82.228477 
	C307.498505,83.483406 309.303375,84.090096 310.691437,84.986526 
	C310.870209,83.436424 311.253174,81.874443 311.163971,80.339920 
	C311.090973,79.084290 310.455109,77.861366 310.178070,76.235237 
	C312.436523,78.979042 316.678162,81.630135 313.041138,86.201187 
	C311.256470,88.444145 308.630371,88.677780 307.195953,86.240097 
	C305.457703,83.286224 304.622650,79.800873 303.634216,76.278633 
z"/>
<path fill="#E9C3AE" opacity="1.000000" stroke="none" 
	d="
M276.642273,65.045929 
	C278.180725,60.721390 279.203522,55.599751 282.111328,52.001343 
	C285.687103,47.576344 290.117371,48.471542 295.141724,53.370594 
	C294.737213,53.683861 294.173187,53.823452 293.765411,53.631378 
	C285.960327,49.955017 281.520264,51.882236 278.994110,59.995720 
	C278.467926,61.685604 277.647430,63.283855 276.642273,65.045929 
z"/>
<path fill="#DCAEBA" opacity="1.000000" stroke="none" 
	d="
M83.890709,67.946609 
	C83.744080,68.798012 83.684395,69.599541 83.425545,69.670059 
	C81.329132,70.241234 79.195335,70.675224 77.072952,71.151047 
	C77.258934,69.444023 76.808144,67.049271 77.759262,66.168610 
	C79.953972,64.136482 82.536690,64.035446 83.890709,67.946609 
z"/>
<path fill="#EDD0BF" opacity="1.000000" stroke="none" 
	d="
M190.297806,31.713982 
	C189.406876,29.873896 188.791061,27.750900 187.847412,24.497780 
	C193.357025,24.011551 198.307022,23.574705 203.702011,23.251163 
	C200.097092,24.578735 196.047195,25.793009 191.295975,27.217554 
	C191.163010,27.992424 190.867950,29.711750 190.297806,31.713982 
z"/>
<path fill="#E9C3AE" opacity="1.000000" stroke="none" 
	d="
M295.240417,54.143753 
	C301.410004,58.885033 302.431335,66.227982 303.781799,73.773895 
	C302.898590,73.186615 301.862335,72.306351 301.424530,71.191139 
	C299.255341,65.666054 297.244232,60.078930 295.240417,54.143753 
z"/>
<path fill="#E9C3AE" opacity="1.000000" stroke="none" 
	d="
M270.004456,81.360519 
	C274.069946,81.728355 275.258392,79.597008 275.186432,75.949417 
	C275.138245,73.507797 275.404633,71.059975 275.802307,68.309738 
	C276.313263,71.841553 277.022705,75.723625 276.660614,79.503044 
	C276.288086,83.391960 272.810516,84.327309 270.004456,81.360519 
z"/>
<path fill="#E9C3AE" opacity="1.000000" stroke="none" 
	d="
M260.933319,65.451973 
	C263.937836,70.150078 266.949951,75.210968 269.976349,80.640038 
	C269.268768,80.667519 268.173157,80.518806 267.884033,79.955864 
	C265.485321,75.285469 263.235657,70.538544 260.933319,65.451973 
z"/>
<path fill="#EDD0BF" opacity="1.000000" stroke="none" 
	d="
M200.711792,16.724949 
	C196.234818,17.627956 191.467545,18.239882 186.273254,18.730036 
	C190.192596,14.451168 195.441574,16.344343 200.711792,16.724949 
z"/>
<path fill="#EDD0BF" opacity="1.000000" stroke="none" 
	d="
M183.669174,31.755291 
	C183.943344,32.485832 183.940079,32.969204 183.826431,33.798149 
	C182.842728,33.113369 182.013916,32.040680 181.084686,31.063461 
	C179.940338,29.860022 178.712296,28.736135 177.264435,27.315983 
	C179.017319,26.347649 181.026199,25.641195 183.391739,24.809324 
	C183.391739,27.555700 183.391739,29.531914 183.669174,31.755291 
z"/>
<path fill="#E9C3AE" opacity="1.000000" stroke="none" 
	d="
M246.614868,81.002899 
	C246.677719,77.268745 247.072983,73.388885 247.749847,69.255615 
	C247.670059,72.953873 247.308670,76.905533 246.614868,81.002899 
z"/>
<path fill="#EDD0BF" opacity="1.000000" stroke="none" 
	d="
M198.994873,83.526619 
	C199.365906,83.089989 199.807816,82.984993 200.901825,82.769096 
	C201.714340,81.435661 201.874756,80.213120 202.035156,78.990578 
	C202.050186,78.512741 202.065201,78.034904 202.203934,77.220230 
	C203.081268,78.702492 203.834915,80.521591 204.588547,82.340698 
	C202.747604,82.846550 200.906662,83.352394 198.994873,83.526619 
z"/>
<path fill="#EDD0BF" opacity="1.000000" stroke="none" 
	d="
M190.089920,35.976646 
	C190.082901,35.497963 190.075882,35.019287 190.177139,34.198009 
	C191.695953,37.095505 193.106506,40.335602 194.246124,43.791687 
	C193.975204,44.007675 193.530182,44.027683 193.313324,43.695400 
	C192.779221,42.896404 192.461990,42.429691 192.144745,41.962982 
	C191.932281,40.810638 191.719818,39.658295 191.287689,37.940437 
	C190.741989,36.908829 190.415955,36.442738 190.089920,35.976646 
z"/>
<path fill="#E9C3AE" opacity="1.000000" stroke="none" 
	d="
M252.146561,61.798416 
	C255.297775,58.013317 257.390594,61.395649 259.847534,63.722252 
	C257.466156,63.336117 255.009766,62.607075 252.146561,61.798416 
z"/>
<path fill="#EDD0BF" opacity="1.000000" stroke="none" 
	d="
M160.972977,29.476448 
	C162.705429,29.138485 164.486542,29.137857 166.703506,29.234325 
	C165.291031,31.913582 163.350449,33.325672 160.972977,29.476448 
z"/>
<path fill="#EDD0BF" opacity="1.000000" stroke="none" 
	d="
M181.751068,18.705231 
	C179.868927,19.596704 177.742294,20.226944 175.236481,20.753399 
	C177.073715,19.914410 179.290131,19.179203 181.751068,18.705231 
z"/>
<path fill="#D17C4C" opacity="1.000000" stroke="none" 
	d="
M194.121109,69.289032 
	C195.000931,70.493057 195.773224,72.025497 196.033142,73.591736 
	C195.014587,72.750221 194.508423,71.874916 194.002274,70.999611 
	C194.006042,70.538895 194.009811,70.078171 194.121109,69.289032 
z"/>
<path fill="#EDD0BF" opacity="1.000000" stroke="none" 
	d="
M200.114624,71.968735 
	C200.097778,71.189873 200.080948,70.411018 200.185471,69.261414 
	C201.031158,70.461510 201.755478,72.032356 201.979767,73.654884 
	C201.024689,73.127296 200.569656,72.548019 200.114624,71.968735 
z"/>
<path fill="#EDD0BF" opacity="1.000000" stroke="none" 
	d="
M169.229584,29.296480 
	C170.496338,28.441484 171.986008,27.835115 173.823578,27.329865 
	C172.598480,28.135691 171.025497,28.840399 169.229584,29.296480 
z"/>
<path fill="#EDD0BF" opacity="1.000000" stroke="none" 
	d="
M193.744385,71.217926 
	C194.508423,71.874916 195.014587,72.750221 195.769653,73.812355 
	C195.985825,74.480141 195.953049,74.961090 195.792236,75.780472 
	C194.938293,74.558006 194.212402,72.997124 193.744385,71.217926 
z"/>
<path fill="#EDD0BF" opacity="1.000000" stroke="none" 
	d="
M171.805359,20.782303 
	C170.524673,21.646994 169.043869,22.253555 167.211578,22.761234 
	C168.441818,21.949629 170.023514,21.236900 171.805359,20.782303 
z"/>
<path fill="#EDD0BF" opacity="1.000000" stroke="none" 
	d="
M198.192474,57.818127 
	C197.918213,58.024391 197.466354,58.054688 197.270660,57.687309 
	C196.713989,56.547314 196.353027,55.774693 195.992065,55.002068 
	C196.019333,54.521297 196.046616,54.040531 196.201218,53.221504 
	C197.041275,54.459457 197.753998,56.035660 198.192474,57.818127 
z"/>
<path fill="#EDD0BF" opacity="1.000000" stroke="none" 
	d="
M191.911774,57.024361 
	C191.929352,57.800983 191.946930,58.577610 191.849609,59.725780 
	C190.998032,58.531536 190.261368,56.965748 190.024704,55.347359 
	C190.987061,55.871288 191.449417,56.447826 191.911774,57.024361 
z"/>
<path fill="#D17C4C" opacity="1.000000" stroke="none" 
	d="
M199.890335,67.708481 
	C199.010727,66.504204 198.236313,64.970993 197.976547,63.405930 
	C198.997910,64.248848 199.504639,65.123627 200.011383,65.998405 
	C200.006088,66.458786 200.000809,66.919167 199.890335,67.708481 
z"/>
<path fill="#EDD0BF" opacity="1.000000" stroke="none" 
	d="
M193.908539,65.025215 
	C193.921906,65.804146 193.935287,66.583084 193.828827,67.733276 
	C192.985260,66.534096 192.261520,64.963669 192.039520,63.343620 
	C192.997025,63.871071 193.452789,64.448143 193.908539,65.025215 
z"/>
<path fill="#EDD0BF" opacity="1.000000" stroke="none" 
	d="
M200.267059,65.778900 
	C199.504639,65.123627 198.997910,64.248848 198.242432,63.187160 
	C198.025696,62.517521 198.057693,62.034794 198.222626,61.214146 
	C199.077972,62.437279 199.800369,63.998337 200.267059,65.778900 
z"/>
<path fill="#EDD0BF" opacity="1.000000" stroke="none" 
	d="
M208.981812,16.547359 
	C207.613937,16.896940 206.170685,16.901489 204.303482,16.812716 
	C205.555161,16.547037 207.230789,16.374683 208.981812,16.547359 
z"/>
<path fill="#EDD0BF" opacity="1.000000" stroke="none" 
	d="
M207.150986,23.148830 
	C207.812897,22.023544 208.640732,21.148180 209.742691,20.137554 
	C209.116852,21.134449 208.216873,22.266600 207.150986,23.148830 
z"/>
<path fill="#D17C4C" opacity="1.000000" stroke="none" 
	d="
M199.838745,72.153702 
	C200.569656,72.548019 201.024689,73.127296 201.719818,73.852806 
	C201.966187,74.459213 201.972458,74.919388 201.876831,75.709442 
	C201.037567,74.805771 200.300217,73.572220 199.838745,72.153702 
z"/>
<path fill="#EDD0BF" opacity="1.000000" stroke="none" 
	d="
M164.783035,22.704319 
	C163.868835,23.609039 162.744827,24.269411 161.284790,24.920177 
	C162.156906,24.093702 163.365067,23.276834 164.783035,22.704319 
z"/>
<path fill="#D17C4C" opacity="1.000000" stroke="none" 
	d="
M184.017242,34.283470 
	C184.910873,35.163181 185.720795,36.378166 186.026550,37.645412 
	C185.017838,37.131344 184.513306,36.565014 184.008759,35.998688 
	C183.983688,35.538708 183.958618,35.078728 184.017242,34.283470 
z"/>
<path fill="#D17C4C" opacity="1.000000" stroke="none" 
	d="
M196.111603,77.290947 
	C196.939682,78.215904 197.665970,79.469376 198.105194,80.902985 
	C197.818146,81.083115 197.378082,81.135796 197.197342,80.782600 
	C196.691254,79.951164 196.365921,79.472916 196.040588,78.994667 
	C196.030319,78.536263 196.020050,78.077866 196.111603,77.290947 
z"/>
<path fill="#EDD0BF" opacity="1.000000" stroke="none" 
	d="
M183.758331,36.196606 
	C184.513306,36.565014 185.017838,37.131344 185.769897,37.848274 
	C186.010574,38.476398 186.003754,38.953922 185.891846,39.774109 
	C185.027130,38.876019 184.267517,37.635273 183.758331,36.196606 
z"/>
<path fill="#D17C4C" opacity="1.000000" stroke="none" 
	d="
M186.077972,40.258381 
	C186.964355,41.140026 187.762924,42.359367 188.068390,43.634850 
	C187.076645,43.123539 186.578018,42.556080 186.079376,41.988625 
	C186.049637,41.524441 186.019882,41.060257 186.077972,40.258381 
z"/>
<path fill="#D17C4C" opacity="1.000000" stroke="none" 
	d="
M194.180130,64.838959 
	C193.452789,64.448143 192.997025,63.871071 192.301529,63.147697 
	C192.058456,62.539124 192.055130,62.076855 192.158844,61.284676 
	C192.994492,62.187412 193.723099,63.420059 194.180130,64.838959 
z"/>
<path fill="#EDD0BF" opacity="1.000000" stroke="none" 
	d="
M185.817703,42.177551 
	C186.578018,42.556080 187.076645,43.123539 187.820740,43.843567 
	C188.050354,44.472549 188.034531,44.948959 187.911896,45.766800 
	C187.055405,44.860977 186.305710,43.613731 185.817703,42.177551 
z"/>
<path fill="#D17C4C" opacity="1.000000" stroke="none" 
	d="
M188.090744,46.252731 
	C188.957275,47.146587 189.731079,48.378571 190.001678,49.655785 
	C189.017883,49.131306 188.537277,48.561604 188.056686,47.991898 
	C188.037125,47.524887 188.017563,47.057873 188.090744,46.252731 
z"/>
<path fill="#EDD0BF" opacity="1.000000" stroke="none" 
	d="
M194.056244,47.984375 
	C194.067993,47.507187 194.079742,47.029995 194.214294,46.216209 
	C195.048080,47.125843 195.759079,48.372082 195.973068,49.661854 
	C195.002777,49.131718 194.529510,48.558048 194.056244,47.984375 
z"/>
<path fill="#EDD0BF" opacity="1.000000" stroke="none" 
	d="
M187.799988,48.181633 
	C188.537277,48.561604 189.017883,49.131306 189.740570,49.851105 
	C189.963013,50.480560 189.943375,50.959915 189.800507,51.777634 
	C188.965927,50.867786 188.254608,49.619572 187.799988,48.181633 
z"/>
<path fill="#D17C4C" opacity="1.000000" stroke="none" 
	d="
M193.789520,48.175697 
	C194.529510,48.558048 195.002777,49.131718 195.718918,49.852264 
	C195.971176,50.458725 195.980560,50.918304 195.888947,51.707649 
	C195.032898,50.813942 194.277847,49.590481 193.789520,48.175697 
z"/>
<path fill="#D17C4C" opacity="1.000000" stroke="none" 
	d="
M192.183441,56.837009 
	C191.449417,56.447826 190.987061,55.871288 190.283783,55.147827 
	C190.036789,54.540085 190.030716,54.079269 190.129395,53.288933 
	C190.974457,54.189491 191.714783,55.419571 192.183441,56.837009 
z"/>
<path fill="#E9C3AE" opacity="1.000000" stroke="none" 
	d="
M248.658661,67.074295 
	C248.912445,65.770569 249.496246,64.366257 250.396576,62.847443 
	C250.138321,64.146523 249.563507,65.560120 248.658661,67.074295 
z"/>
<path fill="#EDD0BF" opacity="1.000000" stroke="none" 
	d="
M195.808350,79.154175 
	C196.365921,79.472916 196.691254,79.951164 196.981628,80.731857 
	C196.489807,80.460754 196.032959,79.887215 195.808350,79.154175 
z"/>
<path fill="#FDF9FA" opacity="1.000000" stroke="none" 
	d="
M38.688957,56.574371 
	C36.578648,48.586597 34.697598,40.868271 33.119781,33.088448 
	C32.896561,31.987804 33.939175,29.656778 34.754055,29.471632 
	C41.977085,27.830515 49.152695,25.388327 56.734253,28.189133 
	C61.984016,30.128521 65.974396,33.243401 66.665077,38.873802 
	C67.289230,43.961861 63.484344,47.183811 59.720680,49.620838 
	C53.466385,53.670589 46.926826,57.342602 38.688957,56.574371 
z"/>
<path fill="#F5E5DB" opacity="1.000000" stroke="none" 
	d="
M338.547913,53.635170 
	C336.428833,54.538235 334.635803,55.258194 332.713806,56.029926 
	C332.167664,48.243671 339.499237,41.604893 346.263153,43.217342 
	C349.339478,43.950718 349.848450,45.745869 347.495270,47.669586 
	C344.828186,49.849918 341.764923,51.545643 338.547913,53.635170 
z"/>
<path fill="#D17C4C" opacity="1.000000" stroke="none" 
	d="
M201.764633,79.196426 
	C201.874756,80.213120 201.714340,81.435661 201.231979,82.680580 
	C201.104721,81.602730 201.299423,80.502502 201.764633,79.196426 
z"/>
<path fill="#D17C4C" opacity="1.000000" stroke="none" 
	d="
M195.736191,55.199135 
	C196.353027,55.774693 196.713989,56.547314 197.046448,57.655586 
	C196.505402,57.126221 195.992859,56.261211 195.736191,55.199135 
z"/>
<path fill="#D17C4C" opacity="1.000000" stroke="none" 
	d="
M191.889099,42.119331 
	C192.461990,42.429691 192.779221,42.896404 193.093781,43.657810 
	C192.605209,43.393566 192.119324,42.834629 191.889099,42.119331 
z"/>
<path fill="#D17C4C" opacity="1.000000" stroke="none" 
	d="
M189.843811,36.138027 
	C190.415955,36.442738 190.741989,36.908829 191.063995,37.672081 
	C190.572556,37.412632 190.085144,36.856022 189.843811,36.138027 
z"/>
</svg>